<?xml version="1.0" encoding="UTF-8" standalone="no"?>
<!-- Created with Inkscape (http://www.inkscape.org/) -->

<svg
   width="37.528957mm"
   height="37.528961mm"
   viewBox="0 0 37.528957 37.528961"
   version="1.1"
   id="svg1"
   xmlns="http://www.w3.org/2000/svg"
   xmlns:svg="http://www.w3.org/2000/svg">
  <defs
     id="defs1" />
  <g
     id="layer1"
     transform="translate(-96.699847,-206.29713)">
    <path
       id="path20"
       style="fill:none;stroke:#000000;stroke-width:0.391439;stroke-opacity:1"
       d="m 115.46422,206.49285 a 18.56873,18.56873 0 0 0 -18.568652,18.56888 18.56873,18.56873 0 0 0 18.568652,18.56864 18.56873,18.56873 0 0 0 18.56887,-18.56864 18.56873,18.56873 0 0 0 -18.56887,-18.56888 z m 0,1.60538 a 16.963398,16.963398 0 0 1 16.96349,16.9635 16.963398,16.963398 0 0 1 -16.96349,16.96326 16.963398,16.963398 0 0 1 -16.963272,-16.96326 16.963398,16.963398 0 0 1 16.963272,-16.9635 z" />
    <circle
       style="fill:#000000;fill-opacity:1;stroke:none;stroke-width:0.233505;stroke-opacity:1"
       id="circle20"
       cx="115.46433"
       cy="225.06035"
       r="0.88293296" />
    <g
       id="g22"
       transform="matrix(0.45252783,0,0,-0.45252783,65.126415,289.73551)">
      <path
         style="fill:none;fill-opacity:1;stroke:#000000;stroke-width:0.562349;stroke-opacity:1"
         d="m 110.83149,141.07483 -0.67255,-35.36211"
         id="path21" />
      <path
         style="fill:none;fill-opacity:1;stroke:#000000;stroke-width:0.562349;stroke-opacity:1"
         d="m 111.52181,141.07483 0.67255,-35.36211"
         id="path22" />
    </g>
    <g
       id="g24"
       transform="matrix(0.45252783,0,0,0.45252783,65.029733,160.41989)">
      <path
         style="fill:none;fill-opacity:1;stroke:#000000;stroke-width:0.562349;stroke-opacity:1"
         d="m 110.83149,141.07483 -0.67255,-35.36211"
         id="path23" />
      <path
         style="fill:none;fill-opacity:1;stroke:#000000;stroke-width:0.562349;stroke-opacity:1"
         d="m 111.52181,141.07483 0.67255,-35.36211"
         id="path24" />
    </g>
    <g
       id="g26"
       transform="matrix(0.00634692,0.45248332,0.45248332,-0.00634692,50.032208,175.72732)">
      <path
         style="fill:none;fill-opacity:1;stroke:#000000;stroke-width:0.562349;stroke-opacity:1"
         d="m 110.83149,141.07483 -0.67255,-35.36211"
         id="path25" />
      <path
         style="fill:none;fill-opacity:1;stroke:#000000;stroke-width:0.562349;stroke-opacity:1"
         d="m 111.52181,141.07483 0.67255,-35.36211"
         id="path26" />
    </g>
    <g
       id="g28"
       transform="matrix(0.00634692,0.45248332,-0.45248332,0.00634692,179.33374,173.81694)">
      <path
         style="fill:none;fill-opacity:1;stroke:#000000;stroke-width:0.562349;stroke-opacity:1"
         d="m 110.83149,141.07483 -0.67255,-35.36211"
         id="path27" />
      <path
         style="fill:none;fill-opacity:1;stroke:#000000;stroke-width:0.562349;stroke-opacity:1"
         d="m 111.52181,141.07483 0.67255,-35.36211"
         id="path28" />
    </g>
    <g
       id="g30"
       transform="matrix(-0.33317486,0.30622859,0.30622859,0.33317486,108.63991,143.46035)">
      <path
         style="fill:none;fill-opacity:1;stroke:#000000;stroke-width:0.562349;stroke-opacity:1"
         d="m 110.83149,141.07483 -0.67255,-35.36211"
         id="path29" />
      <path
         style="fill:none;fill-opacity:1;stroke:#000000;stroke-width:0.562349;stroke-opacity:1"
         d="m 111.52181,141.07483 0.67255,-35.36211"
         id="path30" />
    </g>
    <g
       id="g32"
       transform="matrix(-0.33317487,0.30622858,-0.30622858,-0.33317487,196.21982,238.60402)">
      <path
         style="fill:none;fill-opacity:1;stroke:#000000;stroke-width:0.562349;stroke-opacity:1"
         d="m 110.83149,141.07483 -0.67255,-35.36211"
         id="path31" />
      <path
         style="fill:none;fill-opacity:1;stroke:#000000;stroke-width:0.562349;stroke-opacity:1"
         d="m 111.52181,141.07483 0.67255,-35.36211"
         id="path32" />
    </g>
    <g
       id="g34"
       transform="matrix(0.33317486,0.30622859,-0.30622859,0.33317486,122.13729,143.46035)">
      <path
         style="fill:none;fill-opacity:1;stroke:#000000;stroke-width:0.562349;stroke-opacity:1"
         d="m 110.83149,141.07483 -0.67255,-35.36211"
         id="path33" />
      <path
         style="fill:none;fill-opacity:1;stroke:#000000;stroke-width:0.562349;stroke-opacity:1"
         d="m 111.52181,141.07483 0.67255,-35.36211"
         id="path34" />
    </g>
    <g
       id="g36"
       transform="matrix(0.33317487,0.30622858,0.30622858,-0.33317487,34.55738,238.60402)">
      <path
         style="fill:none;fill-opacity:1;stroke:#000000;stroke-width:0.562349;stroke-opacity:1"
         d="m 110.83149,141.07483 -0.67255,-35.36211"
         id="path35" />
      <path
         style="fill:none;fill-opacity:1;stroke:#000000;stroke-width:0.562349;stroke-opacity:1"
         d="m 111.52181,141.07483 0.67255,-35.36211"
         id="path36" />
    </g>
  </g>
</svg>
