<?xml version="1.0" encoding="UTF-8" standalone="no"?>
<!-- Created with Inkscape (http://www.inkscape.org/) -->

<svg
   width="37.39201mm"
   height="37.391907mm"
   viewBox="0 0 37.39201 37.391907"
   version="1.1"
   id="svg1"
   xmlns="http://www.w3.org/2000/svg"
   xmlns:svg="http://www.w3.org/2000/svg">
  <defs
     id="defs1" />
  <g
     id="layer1"
     transform="translate(-96.765124,-82.302557)">
    <path
       id="path1"
       style="fill:#ffffff;fill-opacity:1;stroke:#ffffff;stroke-width:0.254479;stroke-opacity:1"
       d="m 114.91158,101.68945 -10.60481,11.98772 m 10.37482,-12.19912 -11.05297,11.57582 m 12.46058,-12.5028 11.05297,-11.575747 M 115.8592,100.33968 126.46402,88.352029 m -10.60481,13.337421 10.60481,11.98772 m -10.37482,-12.19912 11.05297,11.57581 M 114.68159,100.55107 103.62862,88.975323 m 11.28296,11.364357 -10.60481,-11.987651 m 11.89758,12.758911 16.00503,0.0799 m -16.00941,-0.39224 15.99649,-0.52876 m -17.62563,0.96072 -15.996495,0.52876 m 15.992115,-0.84112 -16.005033,-0.0799 m 16.931833,-0.64126 0.30435,-16.00225 m -0.61674,16.00226 -0.30434,-16.00226 m 0.71341,17.63728 0.30435,16.00234 m -0.61674,-16.00233 -0.30434,16.00234 m 1.37087,-16.83596 a 0.88293299,0.88293299 0 0 1 -0.88295,0.88294 0.88293299,0.88293299 0 0 1 -0.88292,-0.88294 0.88293299,0.88293299 0 0 1 0.88293,-0.88293 0.88293299,0.88293299 0 0 1 0.88294,0.88293 z m -0.88305,-18.568658 a 18.56873,18.56873 0 0 0 -18.568658,18.568778 18.56873,18.56873 0 0 0 18.568648,18.56864 18.56873,18.56873 0 0 0 18.56888,-18.56864 18.56873,18.56873 0 0 0 -18.56887,-18.568778 z m 0,1.605371 a 16.963398,16.963398 0 0 1 16.96349,16.963407 16.963398,16.963398 0 0 1 -16.9635,16.96326 16.963398,16.963398 0 0 1 -16.963268,-16.96326 16.963398,16.963398 0 0 1 16.963278,-16.963407 z" />
  </g>
</svg>
