<?xml version="1.0" encoding="UTF-8" standalone="no"?>
<!-- Created with Inkscape (http://www.inkscape.org/) -->

<svg width="364.21" height="141.324" viewBox="0 0 96.364 37.392" xmlns="http://www.w3.org/2000/svg">
   <path
      d="M149.73 158.76v-8.741q0-.875-.292-1.117-.243-.292-1.165-.292h-8.062v-3.545h9.373q2.38 0 3.448 1.117 1.117 1.068 1.117 3.157v10.1q0 2.09-1.117 3.206-1.068 1.069-3.448 1.069h-7.819v-3.497h6.508q.922 0 1.165-.291.292-.292.292-1.166m-10.102-13.695H144v30.401h-4.37z"
      style="font-size:48.5639px;line-height:1.75;font-family:Teko;-inkscape-font-specification:&quot;Teko, Normal&quot;;stroke-width:1.97315"
      aria-label="P" transform="translate(-57.785 -141.57)" />
   <path id="wheel" style="fill:none;fill-opacity:1;stroke:#000;stroke-width:.254479;stroke-opacity:1"
      d="m114.912 160.956-10.605 11.988m10.375-12.199-11.053 11.576m12.46-12.503 11.053-11.576m-11.283 11.365 10.605-11.988m-10.605 13.337 10.605 11.988m-10.375-12.199 11.053 11.576m-12.46-12.503-11.053-11.576m11.283 11.365-10.605-11.988m11.897 12.759 16.005.08m-16.009-.392 15.996-.53m-17.625.962-15.997.528m15.992-.84-16.005-.08m16.932-.642.305-16.002m-.617 16.002-.304-16.002m.713 17.637.304 16.002m-.616-16.002-.305 16.002m1.371-16.835a.883.883 0 0 1-.883.882.883.883 0 0 1-.883-.882.883.883 0 0 1 .883-.883.883.883 0 0 1 .883.883zm-.883-18.57a18.57 18.57 0 0 0-18.569 18.57 18.57 18.57 0 0 0 18.569 18.568 18.57 18.57 0 0 0 18.569-18.568 18.57 18.57 0 0 0-18.569-18.57zm0 1.606a16.963 16.963 0 0 1 16.964 16.964 16.963 16.963 0 0 1-16.964 16.963 16.963 16.963 0 0 1-16.963-16.963 16.963 16.963 0 0 1 16.963-16.964z"
      aria-label="O" transform="translate(-57.785 -141.57)" />
   <path
      style="font-size:48.5636px;line-height:1.75;font-family:Teko;-inkscape-font-specification:&quot;Teko, Normal&quot;;stroke-width:1.97313"
      d="M88.233 158.566v3.545h-9.081v-3.545zm-12.19-13.5h4.42v30.4h-4.42zm10.83 0h4.42v30.4h-4.42z"
      aria-label="H" transform="translate(-57.785 -141.57)" />
   <path
      style="font-size:48.5636px;line-height:1.75;font-family:Teko;-inkscape-font-specification:&quot;Teko, Normal&quot;;stroke-width:1.97313"
      d="M67.206 170.512v-7.43q0-.874-.291-1.117-.243-.291-1.117-.291h-3.594q-2.33 0-3.4-1.117-1.019-1.117-1.019-3.205v-8.013q0-2.089 1.068-3.157 1.117-1.117 3.448-1.117h4.76q2.38 0 3.448 1.117 1.068 1.068 1.068 3.157v4.468h-4.42v-3.788q0-.875-.29-1.117-.243-.292-1.166-.292h-2.04q-.874 0-1.165.292-.292.242-.292 1.117v6.75q0 .826.292 1.117.291.291 1.165.291h3.545q2.331 0 3.4 1.117 1.068 1.069 1.068 3.157v8.741q0 2.089-1.117 3.206-1.068 1.068-3.4 1.068H62.4q-2.331 0-3.448-1.068-1.069-1.117-1.069-3.206v-4.468h4.42v3.788q0 .826.29 1.117.292.292 1.166.292h2.04q.874 0 1.117-.292.291-.291.291-1.117"
      aria-label="S" transform="translate(-57.785 -141.57)" />
</svg>