<?xml version="1.0" encoding="UTF-8" standalone="no"?>
<!-- Created with Inkscape (http://www.inkscape.org/) -->

<svg
   width="210mm"
   height="297mm"
   viewBox="0 0 210 297"
   version="1.1"
   id="svg1"
   inkscape:version="1.3.2 (091e20e, 2023-11-25, custom)"
   sodipodi:docname="logo-bearbeitung.svg"
   xmlns:inkscape="http://www.inkscape.org/namespaces/inkscape"
   xmlns:sodipodi="http://sodipodi.sourceforge.net/DTD/sodipodi-0.dtd"
   xmlns="http://www.w3.org/2000/svg"
   xmlns:svg="http://www.w3.org/2000/svg">
  <sodipodi:namedview
     id="namedview1"
     pagecolor="#ffffff"
     bordercolor="#000000"
     borderopacity="0.25"
     inkscape:showpageshadow="2"
     inkscape:pageopacity="0.0"
     inkscape:pagecheckerboard="0"
     inkscape:deskcolor="#d1d1d1"
     inkscape:document-units="mm"
     inkscape:zoom="0.74583495"
     inkscape:cx="500.78104"
     inkscape:cy="607.37298"
     inkscape:window-width="1440"
     inkscape:window-height="830"
     inkscape:window-x="-6"
     inkscape:window-y="-6"
     inkscape:window-maximized="1"
     inkscape:current-layer="layer1" />
  <defs
     id="defs1" />
  <g
     inkscape:label="Ebene 1"
     inkscape:groupmode="layer"
     id="layer1">
    <g
       id="g37"
       inkscape:label="Rad">
      <g
         id="g6"
         inkscape:label="Speiche"
         transform="matrix(0.45252783,0,0,-0.45252783,65.126415,225.70594)" />
      <g
         id="g4"
         inkscape:label="Speiche"
         transform="matrix(0.45252783,0,0,0.45252783,65.029733,96.390337)" />
      <g
         id="g8"
         inkscape:label="Speiche"
         transform="matrix(0.00634692,0.45248332,0.45248332,-0.00634692,50.032208,111.69775)" />
      <g
         id="g10"
         inkscape:label="Speiche"
         transform="matrix(0.00634692,0.45248332,-0.45248332,0.00634692,179.33374,109.78737)" />
      <g
         id="g12"
         inkscape:label="Speiche"
         transform="matrix(-0.33317486,0.30622859,0.30622859,0.33317486,108.63991,79.430899)" />
      <g
         id="g14"
         inkscape:label="Speiche"
         transform="matrix(-0.33317487,0.30622858,-0.30622858,-0.33317487,196.21982,174.57445)" />
      <g
         id="g16"
         inkscape:label="Speiche"
         transform="matrix(0.33317486,0.30622859,-0.30622859,0.33317486,122.13729,79.430899)" />
      <g
         id="g18"
         inkscape:label="Speiche"
         transform="matrix(0.33317487,0.30622858,0.30622858,-0.33317487,34.55738,174.57445)" />
    </g>
    <path
       id="path18"
       style="fill:#000000;fill-opacity:1;stroke:#000000;stroke-width:0.254479;stroke-opacity:1"
       inkscape:transform-center-x="-0.41684753"
       inkscape:transform-center-y="-19.600013"
       d="m 114.91158,160.95649 -10.60481,11.98772 m 10.37482,-12.19912 -11.05297,11.57582 m 12.46058,-12.5028 11.05297,-11.57581 M 115.8592,159.60672 126.46402,147.619 m -10.60481,13.33749 10.60481,11.98772 M 116.0892,160.74509 127.14217,172.3209 M 114.68159,159.81811 103.62862,148.2423 m 11.28296,11.36442 -10.60481,-11.98772 m 11.89758,12.75898 16.00503,0.0799 m -16.00941,-0.39224 15.99649,-0.52876 m -17.62563,0.96072 -15.996495,0.52876 m 15.992115,-0.84112 -16.005033,-0.0799 m 16.931833,-0.64126 0.30435,-16.00234 m -0.61674,16.00235 -0.30434,-16.00235 m 0.71341,17.63737 0.30435,16.00234 m -0.61674,-16.00233 -0.30434,16.00234 m 1.37087,-16.83596 a 0.88293299,0.88293299 0 0 1 -0.88295,0.88294 0.88293299,0.88293299 0 0 1 -0.88292,-0.88294 0.88293299,0.88293299 0 0 1 0.88293,-0.88293 0.88293299,0.88293299 0 0 1 0.88294,0.88293 z m -0.88305,-18.56876 a 18.56873,18.56873 0 0 0 -18.568658,18.56888 18.56873,18.56873 0 0 0 18.568648,18.56864 18.56873,18.56873 0 0 0 18.56888,-18.56864 18.56873,18.56873 0 0 0 -18.56887,-18.56888 z m 0,1.60538 a 16.963398,16.963398 0 0 1 16.96349,16.9635 16.963398,16.963398 0 0 1 -16.9635,16.96326 16.963398,16.963398 0 0 1 -16.963268,-16.96326 16.963398,16.963398 0 0 1 16.963278,-16.9635 z"
       inkscape:label="Rad" />
    <text
       xml:space="preserve"
       style="font-size:48.5636px;line-height:1.75;font-family:Teko;-inkscape-font-specification:'Teko, Normal';fill:none;fill-opacity:1;stroke:#000000;stroke-width:1.97314;stroke-opacity:1"
       x="55.939667"
       y="175.46591"
       id="text19"><tspan
         sodipodi:role="line"
         id="tspan19"
         style="fill:#000000;stroke:none;stroke-width:1.97313"
         x="55.939667"
         y="175.46591">SH</tspan></text>
    <text
       xml:space="preserve"
       style="font-size:48.5639px;line-height:1.75;font-family:Teko;-inkscape-font-specification:'Teko, Normal';fill:#000000;fill-opacity:1;stroke:none;stroke-width:1.97315;stroke-opacity:1"
       x="137.10298"
       y="175.466"
       id="text20"><tspan
         sodipodi:role="line"
         id="tspan20"
         style="stroke-width:1.97315"
         x="137.10298"
         y="175.466">P</tspan></text>
    <path
       id="path20"
       style="fill:#ffffff;stroke:#000000;stroke-width:0.391439;stroke-opacity:1"
       d="m 115.46422,206.49285 a 18.56873,18.56873 0 0 0 -18.568652,18.56888 18.56873,18.56873 0 0 0 18.568652,18.56864 18.56873,18.56873 0 0 0 18.56887,-18.56864 18.56873,18.56873 0 0 0 -18.56887,-18.56888 z m 0,1.60538 a 16.963398,16.963398 0 0 1 16.96349,16.9635 16.963398,16.963398 0 0 1 -16.96349,16.96326 16.963398,16.963398 0 0 1 -16.963272,-16.96326 16.963398,16.963398 0 0 1 16.963272,-16.9635 z"
       inkscape:export-filename="favicon.svg"
       inkscape:export-xdpi="96"
       inkscape:export-ydpi="96" />
    <circle
       style="fill:#000000;fill-opacity:1;stroke:none;stroke-width:0.233505;stroke-opacity:1"
       id="circle20"
       cx="115.46433"
       cy="225.06035"
       r="0.88293296" />
    <g
       id="g22"
       inkscape:label="Speiche"
       transform="matrix(0.45252783,0,0,-0.45252783,65.126415,289.73551)">
      <path
         style="fill:none;fill-opacity:1;stroke:#000000;stroke-width:0.562349;stroke-opacity:1"
         d="m 110.83149,141.07483 -0.67255,-35.36211"
         id="path21"
         inkscape:transform-center-x="0.41685247"
         inkscape:transform-center-y="-19.600013" />
      <path
         style="fill:none;fill-opacity:1;stroke:#000000;stroke-width:0.562349;stroke-opacity:1"
         d="m 111.52181,141.07483 0.67255,-35.36211"
         id="path22"
         inkscape:transform-center-x="-0.41684753"
         inkscape:transform-center-y="-19.600013" />
    </g>
    <g
       id="g24"
       inkscape:label="Speiche"
       transform="matrix(0.45252783,0,0,0.45252783,65.029733,160.41989)">
      <path
         style="fill:none;fill-opacity:1;stroke:#000000;stroke-width:0.562349;stroke-opacity:1"
         d="m 110.83149,141.07483 -0.67255,-35.36211"
         id="path23"
         inkscape:transform-center-x="0.41685247"
         inkscape:transform-center-y="-19.600013" />
      <path
         style="fill:none;fill-opacity:1;stroke:#000000;stroke-width:0.562349;stroke-opacity:1"
         d="m 111.52181,141.07483 0.67255,-35.36211"
         id="path24"
         inkscape:transform-center-x="-0.41684753"
         inkscape:transform-center-y="-19.600013" />
    </g>
    <g
       id="g26"
       inkscape:label="Speiche"
       transform="matrix(0.00634692,0.45248332,0.45248332,-0.00634692,50.032208,175.72732)">
      <path
         style="fill:none;fill-opacity:1;stroke:#000000;stroke-width:0.562349;stroke-opacity:1"
         d="m 110.83149,141.07483 -0.67255,-35.36211"
         id="path25"
         inkscape:transform-center-x="0.41685247"
         inkscape:transform-center-y="-19.600013" />
      <path
         style="fill:none;fill-opacity:1;stroke:#000000;stroke-width:0.562349;stroke-opacity:1"
         d="m 111.52181,141.07483 0.67255,-35.36211"
         id="path26"
         inkscape:transform-center-x="-0.41684753"
         inkscape:transform-center-y="-19.600013" />
    </g>
    <g
       id="g28"
       inkscape:label="Speiche"
       transform="matrix(0.00634692,0.45248332,-0.45248332,0.00634692,179.33374,173.81694)">
      <path
         style="fill:none;fill-opacity:1;stroke:#000000;stroke-width:0.562349;stroke-opacity:1"
         d="m 110.83149,141.07483 -0.67255,-35.36211"
         id="path27"
         inkscape:transform-center-x="0.41685247"
         inkscape:transform-center-y="-19.600013" />
      <path
         style="fill:none;fill-opacity:1;stroke:#000000;stroke-width:0.562349;stroke-opacity:1"
         d="m 111.52181,141.07483 0.67255,-35.36211"
         id="path28"
         inkscape:transform-center-x="-0.41684753"
         inkscape:transform-center-y="-19.600013" />
    </g>
    <g
       id="g30"
       inkscape:label="Speiche"
       transform="matrix(-0.33317486,0.30622859,0.30622859,0.33317486,108.63991,143.46035)">
      <path
         style="fill:none;fill-opacity:1;stroke:#000000;stroke-width:0.562349;stroke-opacity:1"
         d="m 110.83149,141.07483 -0.67255,-35.36211"
         id="path29"
         inkscape:transform-center-x="0.41685247"
         inkscape:transform-center-y="-19.600013" />
      <path
         style="fill:none;fill-opacity:1;stroke:#000000;stroke-width:0.562349;stroke-opacity:1"
         d="m 111.52181,141.07483 0.67255,-35.36211"
         id="path30"
         inkscape:transform-center-x="-0.41684753"
         inkscape:transform-center-y="-19.600013" />
    </g>
    <g
       id="g32"
       inkscape:label="Speiche"
       transform="matrix(-0.33317487,0.30622858,-0.30622858,-0.33317487,196.21982,238.60402)">
      <path
         style="fill:none;fill-opacity:1;stroke:#000000;stroke-width:0.562349;stroke-opacity:1"
         d="m 110.83149,141.07483 -0.67255,-35.36211"
         id="path31"
         inkscape:transform-center-x="0.41685247"
         inkscape:transform-center-y="-19.600013" />
      <path
         style="fill:none;fill-opacity:1;stroke:#000000;stroke-width:0.562349;stroke-opacity:1"
         d="m 111.52181,141.07483 0.67255,-35.36211"
         id="path32"
         inkscape:transform-center-x="-0.41684753"
         inkscape:transform-center-y="-19.600013" />
    </g>
    <g
       id="g34"
       inkscape:label="Speiche"
       transform="matrix(0.33317486,0.30622859,-0.30622859,0.33317486,122.13729,143.46035)">
      <path
         style="fill:none;fill-opacity:1;stroke:#000000;stroke-width:0.562349;stroke-opacity:1"
         d="m 110.83149,141.07483 -0.67255,-35.36211"
         id="path33"
         inkscape:transform-center-x="0.41685247"
         inkscape:transform-center-y="-19.600013" />
      <path
         style="fill:none;fill-opacity:1;stroke:#000000;stroke-width:0.562349;stroke-opacity:1"
         d="m 111.52181,141.07483 0.67255,-35.36211"
         id="path34"
         inkscape:transform-center-x="-0.41684753"
         inkscape:transform-center-y="-19.600013" />
    </g>
    <g
       id="g36"
       inkscape:label="Speiche"
       transform="matrix(0.33317487,0.30622858,0.30622858,-0.33317487,34.55738,238.60402)">
      <path
         style="fill:none;fill-opacity:1;stroke:#000000;stroke-width:0.562349;stroke-opacity:1"
         d="m 110.83149,141.07483 -0.67255,-35.36211"
         id="path35"
         inkscape:transform-center-x="0.41685247"
         inkscape:transform-center-y="-19.600013" />
      <path
         style="fill:none;fill-opacity:1;stroke:#000000;stroke-width:0.562349;stroke-opacity:1"
         d="m 111.52181,141.07483 0.67255,-35.36211"
         id="path36"
         inkscape:transform-center-x="-0.41684753"
         inkscape:transform-center-y="-19.600013" />
    </g>
    <path
       id="path1"
       style="fill:#ffffff;fill-opacity:1;stroke:#ffffff;stroke-width:0.254479;stroke-opacity:1"
       inkscape:transform-center-x="-0.41684753"
       inkscape:transform-center-y="-19.600013"
       d="m 114.91158,101.68945 -10.60481,11.98772 m 10.37482,-12.19912 -11.05297,11.57582 m 12.46058,-12.5028 11.05297,-11.575747 M 115.8592,100.33968 126.46402,88.352029 m -10.60481,13.337421 10.60481,11.98772 m -10.37482,-12.19912 11.05297,11.57581 M 114.68159,100.55107 103.62862,88.975323 m 11.28296,11.364357 -10.60481,-11.987651 m 11.89758,12.758911 16.00503,0.0799 m -16.00941,-0.39224 15.99649,-0.52876 m -17.62563,0.96072 -15.996495,0.52876 m 15.992115,-0.84112 -16.005033,-0.0799 m 16.931833,-0.64126 0.30435,-16.00225 m -0.61674,16.00226 -0.30434,-16.00226 m 0.71341,17.63728 0.30435,16.00234 m -0.61674,-16.00233 -0.30434,16.00234 m 1.37087,-16.83596 a 0.88293299,0.88293299 0 0 1 -0.88295,0.88294 0.88293299,0.88293299 0 0 1 -0.88292,-0.88294 0.88293299,0.88293299 0 0 1 0.88293,-0.88293 0.88293299,0.88293299 0 0 1 0.88294,0.88293 z m -0.88305,-18.568658 a 18.56873,18.56873 0 0 0 -18.568658,18.568778 18.56873,18.56873 0 0 0 18.568648,18.56864 18.56873,18.56873 0 0 0 18.56888,-18.56864 18.56873,18.56873 0 0 0 -18.56887,-18.568778 z m 0,1.605371 a 16.963398,16.963398 0 0 1 16.96349,16.963407 16.963398,16.963398 0 0 1 -16.9635,16.96326 16.963398,16.963398 0 0 1 -16.963268,-16.96326 16.963398,16.963398 0 0 1 16.963278,-16.963407 z"
       inkscape:label="Rad"
       inkscape:export-filename="favicon-white.svg"
       inkscape:export-xdpi="96"
       inkscape:export-ydpi="96" />
  </g>
</svg>
