<?xml version="1.0" encoding="UTF-8" standalone="no"?>
<!-- Created with Inkscape (http://www.inkscape.org/) -->

<svg
   width="96.363823mm"
   height="37.391987mm"
   viewBox="0 0 96.363823 37.391987"
   version="1.1"
   id="svg1"
   sodipodi:docname="logo-edit.svg"
   inkscape:version="1.3.2 (091e20e, 2023-11-25, custom)"
   xmlns:inkscape="http://www.inkscape.org/namespaces/inkscape"
   xmlns:sodipodi="http://sodipodi.sourceforge.net/DTD/sodipodi-0.dtd"
   xmlns="http://www.w3.org/2000/svg"
   xmlns:svg="http://www.w3.org/2000/svg">
  <sodipodi:namedview
     id="namedview1"
     pagecolor="#ffffff"
     bordercolor="#000000"
     borderopacity="0.25"
     inkscape:showpageshadow="2"
     inkscape:pageopacity="0.0"
     inkscape:pagecheckerboard="0"
     inkscape:deskcolor="#d1d1d1"
     inkscape:document-units="mm"
     inkscape:zoom="1.6062174"
     inkscape:cx="89.340336"
     inkscape:cy="-16.80968"
     inkscape:window-width="1440"
     inkscape:window-height="830"
     inkscape:window-x="-6"
     inkscape:window-y="-6"
     inkscape:window-maximized="1"
     inkscape:current-layer="layer1" />
  <defs
     id="defs1" />
  <g
     id="layer1"
     transform="translate(-57.785085,-141.5695)">
    <path
       d="m 149.7296,158.76002 v -8.7415 q 0,-0.87415 -0.29139,-1.11697 -0.24282,-0.29138 -1.16553,-0.29138 h -8.06161 V 145.065 h 9.37283 q 2.37963,0 3.44804,1.11697 1.11697,1.06841 1.11697,3.15666 v 10.10129 q 0,2.08824 -1.11697,3.20521 -1.06841,1.06841 -3.44804,1.06841 h -7.81878 v -3.4966 h 6.50756 q 0.92271,0 1.16553,-0.29138 0.29139,-0.29139 0.29139,-1.16554 z M 139.6283,145.065 h 4.37076 v 30.401 h -4.37076 z"
       id="p-letter"
       style="font-size:48.5639px;line-height:1.75;font-family:Teko;-inkscape-font-specification:'Teko, Normal';stroke-width:1.97315"
       inkscape:label="p-letter"
       aria-label="P" />
    <path
       id="wheel"
       style="fill:none;fill-opacity:1;stroke:#000000;stroke-width:0.254479;stroke-opacity:1"
       d="m 114.91158,160.95649 -10.60481,11.98772 m 10.37482,-12.19912 -11.05297,11.57582 m 12.46058,-12.5028 11.05297,-11.57581 M 115.8592,159.60672 126.46402,147.619 m -10.60481,13.33749 10.60481,11.98772 M 116.0892,160.74509 127.14217,172.3209 M 114.68159,159.81811 103.62862,148.2423 m 11.28296,11.36442 -10.60481,-11.98772 m 11.89758,12.75898 16.00503,0.0799 m -16.00941,-0.39224 15.99649,-0.52876 m -17.62563,0.96072 -15.996495,0.52876 m 15.992115,-0.84112 -16.005033,-0.0799 m 16.931833,-0.64126 0.30435,-16.00234 m -0.61674,16.00235 -0.30434,-16.00235 m 0.71341,17.63737 0.30435,16.00234 m -0.61674,-16.00233 -0.30434,16.00234 m 1.37087,-16.83596 a 0.88293299,0.88293299 0 0 1 -0.88295,0.88294 0.88293299,0.88293299 0 0 1 -0.88292,-0.88294 0.88293299,0.88293299 0 0 1 0.88293,-0.88293 0.88293299,0.88293299 0 0 1 0.88294,0.88293 z m -0.88305,-18.56876 a 18.56873,18.56873 0 0 0 -18.568658,18.56888 18.56873,18.56873 0 0 0 18.568648,18.56864 18.56873,18.56873 0 0 0 18.56888,-18.56864 18.56873,18.56873 0 0 0 -18.56887,-18.56888 z m 0,1.60538 a 16.963398,16.963398 0 0 1 16.96349,16.9635 16.963398,16.963398 0 0 1 -16.9635,16.96326 16.963398,16.963398 0 0 1 -16.963268,-16.96326 16.963398,16.963398 0 0 1 16.963278,-16.9635 z"
       inkscape:label="wheel"
       aria-label="O" />
    <g
       id="letters-sh"
       inkscape:label="letters-sh">
      <path
         style="font-size:48.5636px;line-height:1.75;font-family:Teko;-inkscape-font-specification:'Teko, Normal';stroke-width:1.97313"
         d="m 88.233409,158.56578 v 3.54514 h -9.081393 v -3.54514 z M 76.043946,145.0651 h 4.419287 v 30.40081 h -4.419287 z m 10.829682,0 h 4.419288 v 30.40081 h -4.419288 z"
         id="h-letter"
         inkscape:label="h-letter"
         aria-label="H" />
      <path
         style="font-size:48.5636px;line-height:1.75;font-family:Teko;-inkscape-font-specification:'Teko, Normal';stroke-width:1.97313"
         d="m 67.206422,170.51242 v -7.43023 q 0,-0.87414 -0.291382,-1.11696 -0.242818,-0.29138 -1.116963,-0.29138 h -3.593706 q -2.331053,0 -3.399452,-1.11696 -1.019836,-1.11697 -1.019836,-3.2052 v -8.01299 q 0,-2.08824 1.0684,-3.15664 1.116962,-1.11696 3.448015,-1.11696 h 4.759233 q 2.379616,0 3.448015,1.11696 1.0684,1.0684 1.0684,3.15664 v 4.46785 h -4.419288 v -3.78796 q 0,-0.87415 -0.291382,-1.11697 -0.242818,-0.29138 -1.165526,-0.29138 h -2.039671 q -0.874145,0 -1.165526,0.29138 -0.291382,0.24282 -0.291382,1.11697 v 6.75034 q 0,0.82558 0.291382,1.11696 0.291381,0.29138 1.165526,0.29138 h 3.545143 q 2.331052,0 3.399452,1.11696 1.068399,1.0684 1.068399,3.15664 v 8.74145 q 0,2.08823 -1.116963,3.20519 -1.068399,1.0684 -3.399452,1.0684 h -4.759233 q -2.331052,0 -3.448015,-1.0684 -1.068399,-1.11696 -1.068399,-3.20519 v -4.46786 h 4.419287 v 3.78796 q 0,0.82559 0.291382,1.11697 0.291381,0.29138 1.165526,0.29138 h 2.039671 q 0.874145,0 1.116963,-0.29138 0.291382,-0.29138 0.291382,-1.11697 z"
         id="s-letter"
         inkscape:label="s-letter"
         aria-label="S" />
    </g>
  </g>
</svg>
